<mxfile host="Electron" modified="2023-05-06T04:15:18.503Z" agent="Mozilla/5.0 (Windows NT 10.0; Win64; x64) AppleWebKit/537.36 (KHTML, like Gecko) draw.io/21.2.8 Chrome/112.0.5615.165 Electron/24.2.0 Safari/537.36" etag="ayqyiK7E554nP1z0xkia" version="21.2.8" type="device">
  <diagram id="c0GsolflwsUgWMZ_Wb5J" name="Page-1">
    <mxGraphModel dx="780" dy="504" grid="1" gridSize="10" guides="1" tooltips="1" connect="1" arrows="1" fold="1" page="1" pageScale="1" pageWidth="850" pageHeight="1100" math="0" shadow="0">
      <root>
        <mxCell id="0" />
        <mxCell id="1" parent="0" />
        <mxCell id="9PaCEbwZyM9Bh4tpLU1O-1" value="BLDC drone" style="rounded=1;whiteSpace=wrap;html=1;fillColor=#e51400;strokeColor=#B20000;fontColor=#ffffff;" parent="1" vertex="1">
          <mxGeometry x="260" y="280" width="120" height="60" as="geometry" />
        </mxCell>
        <mxCell id="9PaCEbwZyM9Bh4tpLU1O-2" value="" style="curved=1;endArrow=0;html=1;rounded=0;" parent="1" edge="1">
          <mxGeometry width="50" height="50" relative="1" as="geometry">
            <mxPoint x="380" y="300" as="sourcePoint" />
            <mxPoint x="500" y="200" as="targetPoint" />
            <Array as="points">
              <mxPoint x="400" y="290" />
              <mxPoint x="390" y="200" />
            </Array>
          </mxGeometry>
        </mxCell>
        <mxCell id="9PaCEbwZyM9Bh4tpLU1O-4" value="Hardware" style="rounded=1;whiteSpace=wrap;html=1;fillColor=#6d8764;fontColor=#ffffff;strokeColor=#3A5431;" parent="1" vertex="1">
          <mxGeometry x="500" y="170" width="120" height="60" as="geometry" />
        </mxCell>
        <mxCell id="9PaCEbwZyM9Bh4tpLU1O-5" value="" style="curved=1;endArrow=0;html=1;rounded=0;entryX=0;entryY=0.5;entryDx=0;entryDy=0;exitX=1;exitY=0.5;exitDx=0;exitDy=0;" parent="1" source="9PaCEbwZyM9Bh4tpLU1O-1" target="9PaCEbwZyM9Bh4tpLU1O-6" edge="1">
          <mxGeometry width="50" height="50" relative="1" as="geometry">
            <mxPoint x="390" y="310" as="sourcePoint" />
            <mxPoint x="490" y="300" as="targetPoint" />
            <Array as="points">
              <mxPoint x="440" y="310" />
              <mxPoint x="410" y="390" />
            </Array>
          </mxGeometry>
        </mxCell>
        <mxCell id="9PaCEbwZyM9Bh4tpLU1O-6" value="Firmware" style="rounded=1;whiteSpace=wrap;html=1;fillColor=#6d8764;fontColor=#ffffff;strokeColor=#3A5431;" parent="1" vertex="1">
          <mxGeometry x="500" y="480" width="120" height="60" as="geometry" />
        </mxCell>
        <mxCell id="9PaCEbwZyM9Bh4tpLU1O-8" value="" style="curved=1;endArrow=0;html=1;rounded=0;exitX=1;exitY=0.5;exitDx=0;exitDy=0;entryX=0;entryY=0.5;entryDx=0;entryDy=0;" parent="1" source="9PaCEbwZyM9Bh4tpLU1O-1" target="9PaCEbwZyM9Bh4tpLU1O-9" edge="1">
          <mxGeometry width="50" height="50" relative="1" as="geometry">
            <mxPoint x="390" y="320" as="sourcePoint" />
            <mxPoint x="500" y="550" as="targetPoint" />
            <Array as="points">
              <mxPoint x="410" y="400" />
              <mxPoint x="370" y="490" />
            </Array>
          </mxGeometry>
        </mxCell>
        <mxCell id="9PaCEbwZyM9Bh4tpLU1O-9" value="Mechanical" style="rounded=1;whiteSpace=wrap;html=1;fillColor=#6d8764;fontColor=#ffffff;strokeColor=#3A5431;" parent="1" vertex="1">
          <mxGeometry x="500" y="1060" width="120" height="60" as="geometry" />
        </mxCell>
        <mxCell id="9PaCEbwZyM9Bh4tpLU1O-10" style="edgeStyle=orthogonalEdgeStyle;rounded=0;orthogonalLoop=1;jettySize=auto;html=1;exitX=0.5;exitY=1;exitDx=0;exitDy=0;" parent="1" source="9PaCEbwZyM9Bh4tpLU1O-6" target="9PaCEbwZyM9Bh4tpLU1O-6" edge="1">
          <mxGeometry relative="1" as="geometry" />
        </mxCell>
        <mxCell id="k8KEExNDy-sjHDtjbIJp-3" value="" style="curved=1;endArrow=0;html=1;rounded=0;" parent="1" edge="1">
          <mxGeometry width="50" height="50" relative="1" as="geometry">
            <mxPoint x="620" y="200" as="sourcePoint" />
            <mxPoint x="690" y="50" as="targetPoint" />
            <Array as="points">
              <mxPoint x="640" y="180" />
              <mxPoint x="630" y="90" />
            </Array>
          </mxGeometry>
        </mxCell>
        <mxCell id="k8KEExNDy-sjHDtjbIJp-15" value="" style="edgeStyle=orthogonalEdgeStyle;rounded=0;orthogonalLoop=1;jettySize=auto;html=1;" parent="1" source="k8KEExNDy-sjHDtjbIJp-4" target="k8KEExNDy-sjHDtjbIJp-13" edge="1">
          <mxGeometry relative="1" as="geometry" />
        </mxCell>
        <mxCell id="k8KEExNDy-sjHDtjbIJp-4" value="Motor gate driver" style="rounded=1;whiteSpace=wrap;html=1;" parent="1" vertex="1">
          <mxGeometry x="690" y="20" width="120" height="60" as="geometry" />
        </mxCell>
        <mxCell id="k8KEExNDy-sjHDtjbIJp-5" value="" style="curved=1;endArrow=0;html=1;rounded=0;exitX=1;exitY=0.5;exitDx=0;exitDy=0;entryX=0;entryY=0.5;entryDx=0;entryDy=0;" parent="1" source="9PaCEbwZyM9Bh4tpLU1O-4" target="k8KEExNDy-sjHDtjbIJp-6" edge="1">
          <mxGeometry width="50" height="50" relative="1" as="geometry">
            <mxPoint x="620" y="270" as="sourcePoint" />
            <mxPoint x="690" y="130" as="targetPoint" />
            <Array as="points">
              <mxPoint x="650" y="180" />
              <mxPoint x="660" y="160" />
              <mxPoint x="660" y="120" />
            </Array>
          </mxGeometry>
        </mxCell>
        <mxCell id="k8KEExNDy-sjHDtjbIJp-14" value="" style="edgeStyle=orthogonalEdgeStyle;rounded=0;orthogonalLoop=1;jettySize=auto;html=1;" parent="1" source="k8KEExNDy-sjHDtjbIJp-6" target="k8KEExNDy-sjHDtjbIJp-13" edge="1">
          <mxGeometry relative="1" as="geometry" />
        </mxCell>
        <mxCell id="k8KEExNDy-sjHDtjbIJp-6" value="Wins control" style="rounded=1;whiteSpace=wrap;html=1;" parent="1" vertex="1">
          <mxGeometry x="690" y="90" width="120" height="60" as="geometry" />
        </mxCell>
        <mxCell id="k8KEExNDy-sjHDtjbIJp-7" value="ESP8266 /Bluetooth" style="rounded=1;whiteSpace=wrap;html=1;" parent="1" vertex="1">
          <mxGeometry x="690" y="160" width="120" height="60" as="geometry" />
        </mxCell>
        <mxCell id="k8KEExNDy-sjHDtjbIJp-9" value="" style="endArrow=none;html=1;rounded=0;entryX=0;entryY=0.5;entryDx=0;entryDy=0;" parent="1" target="k8KEExNDy-sjHDtjbIJp-7" edge="1">
          <mxGeometry width="50" height="50" relative="1" as="geometry">
            <mxPoint x="620" y="200" as="sourcePoint" />
            <mxPoint x="680" y="160" as="targetPoint" />
          </mxGeometry>
        </mxCell>
        <mxCell id="k8KEExNDy-sjHDtjbIJp-13" value="Power source" style="rhombus;whiteSpace=wrap;html=1;rounded=1;" parent="1" vertex="1">
          <mxGeometry x="910" y="75" width="90" height="90" as="geometry" />
        </mxCell>
        <mxCell id="k8KEExNDy-sjHDtjbIJp-16" value="Current sensing" style="rounded=1;whiteSpace=wrap;html=1;" parent="1" vertex="1">
          <mxGeometry x="690" y="230" width="120" height="60" as="geometry" />
        </mxCell>
        <mxCell id="k8KEExNDy-sjHDtjbIJp-17" value="" style="curved=1;endArrow=0;html=1;rounded=0;exitX=1;exitY=0.5;exitDx=0;exitDy=0;entryX=0;entryY=0.5;entryDx=0;entryDy=0;" parent="1" source="9PaCEbwZyM9Bh4tpLU1O-4" edge="1">
          <mxGeometry width="50" height="50" relative="1" as="geometry">
            <mxPoint x="620" y="340" as="sourcePoint" />
            <mxPoint x="690" y="260" as="targetPoint" />
            <Array as="points">
              <mxPoint x="640" y="230" />
              <mxPoint x="670" y="210" />
              <mxPoint x="660" y="260" />
            </Array>
          </mxGeometry>
        </mxCell>
        <mxCell id="k8KEExNDy-sjHDtjbIJp-18" value="" style="curved=1;endArrow=0;html=1;rounded=0;exitX=1;exitY=0.5;exitDx=0;exitDy=0;" parent="1" source="9PaCEbwZyM9Bh4tpLU1O-6" edge="1">
          <mxGeometry width="50" height="50" relative="1" as="geometry">
            <mxPoint x="620" y="500" as="sourcePoint" />
            <mxPoint x="690" y="360" as="targetPoint" />
            <Array as="points">
              <mxPoint x="640" y="490" />
              <mxPoint x="630" y="400" />
            </Array>
          </mxGeometry>
        </mxCell>
        <mxCell id="k8KEExNDy-sjHDtjbIJp-19" value="Mosfet Gate IO control" style="rounded=1;whiteSpace=wrap;html=1;" parent="1" vertex="1">
          <mxGeometry x="690" y="330" width="120" height="60" as="geometry" />
        </mxCell>
        <mxCell id="k8KEExNDy-sjHDtjbIJp-20" value="" style="curved=1;endArrow=0;html=1;rounded=0;exitX=1;exitY=0.5;exitDx=0;exitDy=0;entryX=0;entryY=0.5;entryDx=0;entryDy=0;" parent="1" target="k8KEExNDy-sjHDtjbIJp-21" edge="1">
          <mxGeometry width="50" height="50" relative="1" as="geometry">
            <mxPoint x="620" y="510" as="sourcePoint" />
            <mxPoint x="690" y="440" as="targetPoint" />
            <Array as="points">
              <mxPoint x="650" y="490" />
              <mxPoint x="660" y="470" />
              <mxPoint x="660" y="430" />
            </Array>
          </mxGeometry>
        </mxCell>
        <mxCell id="k8KEExNDy-sjHDtjbIJp-21" value="Wins control with MPU" style="rounded=1;whiteSpace=wrap;html=1;" parent="1" vertex="1">
          <mxGeometry x="690" y="400" width="120" height="60" as="geometry" />
        </mxCell>
        <mxCell id="k8KEExNDy-sjHDtjbIJp-22" value="Cross zero detection" style="rounded=1;whiteSpace=wrap;html=1;" parent="1" vertex="1">
          <mxGeometry x="690" y="470" width="120" height="60" as="geometry" />
        </mxCell>
        <mxCell id="k8KEExNDy-sjHDtjbIJp-23" value="" style="endArrow=none;html=1;rounded=0;entryX=0;entryY=0.5;entryDx=0;entryDy=0;" parent="1" target="k8KEExNDy-sjHDtjbIJp-22" edge="1">
          <mxGeometry width="50" height="50" relative="1" as="geometry">
            <mxPoint x="620" y="510" as="sourcePoint" />
            <mxPoint x="680" y="470" as="targetPoint" />
          </mxGeometry>
        </mxCell>
        <mxCell id="k8KEExNDy-sjHDtjbIJp-24" value="PID" style="rounded=1;whiteSpace=wrap;html=1;" parent="1" vertex="1">
          <mxGeometry x="690" y="540" width="120" height="60" as="geometry" />
        </mxCell>
        <mxCell id="k8KEExNDy-sjHDtjbIJp-25" value="" style="curved=1;endArrow=0;html=1;rounded=0;exitX=1;exitY=0.5;exitDx=0;exitDy=0;entryX=0;entryY=0.5;entryDx=0;entryDy=0;" parent="1" edge="1">
          <mxGeometry width="50" height="50" relative="1" as="geometry">
            <mxPoint x="620" y="510" as="sourcePoint" />
            <mxPoint x="690" y="570" as="targetPoint" />
            <Array as="points">
              <mxPoint x="640" y="540" />
              <mxPoint x="670" y="520" />
              <mxPoint x="660" y="570" />
            </Array>
          </mxGeometry>
        </mxCell>
        <mxCell id="M-sjJJRE0ivd74V0me5q-3" value="" style="curved=1;endArrow=0;html=1;rounded=0;exitX=1;exitY=0.5;exitDx=0;exitDy=0;entryX=0;entryY=0.5;entryDx=0;entryDy=0;" parent="1" source="9PaCEbwZyM9Bh4tpLU1O-6" target="M-sjJJRE0ivd74V0me5q-4" edge="1">
          <mxGeometry width="50" height="50" relative="1" as="geometry">
            <mxPoint x="700" y="780" as="sourcePoint" />
            <mxPoint x="690" y="650" as="targetPoint" />
            <Array as="points">
              <mxPoint x="640" y="590" />
              <mxPoint x="680" y="600" />
            </Array>
          </mxGeometry>
        </mxCell>
        <mxCell id="M-sjJJRE0ivd74V0me5q-4" value="USMART/USART" style="rounded=1;whiteSpace=wrap;html=1;" parent="1" vertex="1">
          <mxGeometry x="690" y="610" width="120" height="60" as="geometry" />
        </mxCell>
        <mxCell id="M-sjJJRE0ivd74V0me5q-5" value="I2C/UART" style="rounded=1;whiteSpace=wrap;html=1;" parent="1" vertex="1">
          <mxGeometry x="690" y="680" width="120" height="60" as="geometry" />
        </mxCell>
        <mxCell id="M-sjJJRE0ivd74V0me5q-6" value="" style="curved=1;endArrow=0;html=1;rounded=0;exitX=1;exitY=0.5;exitDx=0;exitDy=0;entryX=0;entryY=0.5;entryDx=0;entryDy=0;" parent="1" source="9PaCEbwZyM9Bh4tpLU1O-6" target="M-sjJJRE0ivd74V0me5q-5" edge="1">
          <mxGeometry width="50" height="50" relative="1" as="geometry">
            <mxPoint x="630" y="520" as="sourcePoint" />
            <mxPoint x="700" y="649.9999999999998" as="targetPoint" />
            <Array as="points">
              <mxPoint x="640" y="620" />
              <mxPoint x="670" y="640" />
            </Array>
          </mxGeometry>
        </mxCell>
        <mxCell id="M-sjJJRE0ivd74V0me5q-7" value="ADC" style="rounded=1;whiteSpace=wrap;html=1;" parent="1" vertex="1">
          <mxGeometry x="690" y="750" width="120" height="60" as="geometry" />
        </mxCell>
        <mxCell id="M-sjJJRE0ivd74V0me5q-8" value="" style="curved=1;endArrow=0;html=1;rounded=0;exitX=1;exitY=0.5;exitDx=0;exitDy=0;entryX=0;entryY=0.5;entryDx=0;entryDy=0;" parent="1" source="9PaCEbwZyM9Bh4tpLU1O-6" target="M-sjJJRE0ivd74V0me5q-7" edge="1">
          <mxGeometry width="50" height="50" relative="1" as="geometry">
            <mxPoint x="630" y="520" as="sourcePoint" />
            <mxPoint x="700" y="720" as="targetPoint" />
            <Array as="points">
              <mxPoint x="630" y="620" />
              <mxPoint x="660" y="660" />
            </Array>
          </mxGeometry>
        </mxCell>
        <mxCell id="aP6J4l3cip5aJy0YZg1q-4" value="" style="edgeStyle=orthogonalEdgeStyle;rounded=0;orthogonalLoop=1;jettySize=auto;html=1;" edge="1" parent="1" source="aP6J4l3cip5aJy0YZg1q-1" target="aP6J4l3cip5aJy0YZg1q-3">
          <mxGeometry relative="1" as="geometry" />
        </mxCell>
        <mxCell id="aP6J4l3cip5aJy0YZg1q-1" value="BLE" style="rounded=1;whiteSpace=wrap;html=1;" vertex="1" parent="1">
          <mxGeometry x="690" y="820" width="120" height="60" as="geometry" />
        </mxCell>
        <mxCell id="aP6J4l3cip5aJy0YZg1q-3" value="OTA" style="rounded=1;whiteSpace=wrap;html=1;" vertex="1" parent="1">
          <mxGeometry x="690" y="900" width="120" height="60" as="geometry" />
        </mxCell>
        <mxCell id="aP6J4l3cip5aJy0YZg1q-5" value="" style="curved=1;endArrow=0;html=1;rounded=0;entryX=0;entryY=0.5;entryDx=0;entryDy=0;" edge="1" parent="1" target="aP6J4l3cip5aJy0YZg1q-1">
          <mxGeometry width="50" height="50" relative="1" as="geometry">
            <mxPoint x="620" y="510" as="sourcePoint" />
            <mxPoint x="700" y="790" as="targetPoint" />
            <Array as="points">
              <mxPoint x="620" y="650" />
              <mxPoint x="640" y="710" />
            </Array>
          </mxGeometry>
        </mxCell>
      </root>
    </mxGraphModel>
  </diagram>
</mxfile>
